# xmcd
#
# Track frame offsets:
#	150
#	17012
#	37635
#	53027
#	67652
#	83657
#	97325
#	117292
#	133450
#	145092
#	162032
#
# Disc length: 2386 seconds
#
# Revision: 0
# Processed by: cddbd v1.4PL0 Copyright (c) Steve Scherf et al.
# Submitted via: dBpowerAMP V4.0
#
DISCID=8709500b
DTITLE=Dana Ray Band - Antholgy
DYEAR=1900
DGENRE=
TTITLE0=Crispy Critter
TTITLE1=The City Never Sleeps
TTITLE2=Midi Blues
TTITLE3=Can't Find The News
TTITLE4=My Doctor Needs A New Mercedes
TTITLE5=Roaring Fire
TTITLE6=Shooting Star
TTITLE7=Pretty Face
TTITLE8=Don't Let It Be The Grays
TTITLE9=When You're Rich
TTITLE10=Santa Might
EXTD=
EXTT0=
EXTT1=
EXTT2=
EXTT3=
EXTT4=
EXTT5=
EXTT6=
EXTT7=
EXTT8=
EXTT9=
EXTT10=
PLAYORDER=
